<?xml version="1.0" standalone="no"?>
<!DOCTYPE svg PUBLIC "-//W3C//DTD SVG 20010904//EN"
 "http://www.w3.org/TR/2001/REC-SVG-20010904/DTD/svg10.dtd">
<svg version="1.0" xmlns="http://www.w3.org/2000/svg"
 width="512.000000pt" height="512.000000pt" viewBox="0 0 512.000000 512.000000"
 preserveAspectRatio="xMidYMid meet">
<metadata>
Created by potrace 1.14, written by Peter Selinger 2001-2017
</metadata>
<g transform="translate(0.000000,512.000000) scale(0.100000,-0.100000)"
fill="#000000" stroke="none">
<path d="M3466 3034 c-36 -35 -7 -104 42 -104 29 0 62 34 62 63 0 49 -70 76
-104 41z"/>
<path d="M925 2922 l-7 -99 -67 -7 c-36 -3 -94 -6 -129 -6 l-62 0 6 -27 c19
-76 13 -73 129 -73 123 0 119 5 85 -117 -37 -133 -98 -245 -192 -353 l-40 -45
29 -22 c15 -13 32 -23 36 -23 17 0 149 135 193 197 68 95 102 177 138 336 l6
27 115 0 115 0 0 -209 0 -209 -37 -6 c-21 -3 -60 -8 -86 -12 -47 -6 -48 -7
-45 -38 l3 -31 140 -32 c76 -18 140 -31 142 -29 5 4 47 696 42 700 -2 2 -86
-1 -187 -6 -101 -6 -184 -9 -186 -7 -2 2 1 39 7 82 5 45 6 82 1 87 -5 4 -39
11 -76 15 l-66 7 -7 -100z"/>
<path d="M3317 2992 c-10 -10 -17 -33 -17 -50 0 -28 -3 -32 -27 -32 -50 0
-618 -33 -622 -36 -2 -2 2 -24 9 -49 l13 -45 293 0 c161 0 295 -4 298 -8 7
-12 -66 -161 -112 -228 -55 -83 -181 -199 -295 -275 -53 -35 -97 -69 -97 -75
0 -6 11 -21 24 -33 l24 -22 78 39 c258 130 435 317 534 562 l32 79 -26 34
c-23 30 -24 36 -11 47 21 17 19 73 -3 93 -25 22 -75 21 -95 -1z"/>
<path d="M3997 2970 c-119 -9 -219 -19 -221 -21 -3 -2 1 -23 7 -47 l11 -42
268 0 268 0 0 65 0 65 -57 -1 c-32 -1 -156 -9 -276 -19z"/>
<path d="M1995 2937 c-143 -11 -261 -21 -262 -22 -2 -1 4 -23 13 -48 l16 -47
209 0 209 0 -34 -67 c-80 -158 -220 -314 -413 -460 -62 -46 -113 -88 -113 -91
1 -4 11 -19 23 -34 l23 -28 79 46 c100 56 216 142 302 224 l67 63 71 -74 c39
-41 102 -115 142 -166 l71 -92 56 64 56 63 -48 42 c-39 35 -154 123 -272 209
l-24 18 36 44 c38 46 143 219 154 251 7 22 -69 129 -89 127 -7 -1 -129 -11
-272 -22z"/>
<path d="M3986 2719 c-170 -10 -310 -20 -312 -22 -2 -2 4 -22 13 -45 l16 -42
304 -2 303 -3 -37 -55 c-89 -133 -199 -234 -340 -312 l-73 -40 17 -30 c22 -37
44 -34 162 23 182 86 304 203 429 410 l22 37 -40 51 -40 51 -58 -1 c-31 -1
-196 -10 -366 -20z"/>
</g>
</svg>
